<mxfile host="app.diagrams.net" modified="2021-07-25T04:18:11.208Z" agent="5.0 (X11; Linux x86_64) AppleWebKit/537.36 (KHTML, like Gecko) Chrome/92.0.4515.107 Safari/537.36" etag="88-d9xn3ZkSbsm4ziqA5" version="14.9.2" type="github">
  <diagram id="nPcvH1GQvYh_hTLvzfsL" name="Page-1">
    <mxGraphModel dx="2370" dy="1417" grid="1" gridSize="10" guides="1" tooltips="1" connect="1" arrows="1" fold="1" page="1" pageScale="1" pageWidth="1654" pageHeight="2336" math="0" shadow="0">
      <root>
        <mxCell id="0" />
        <mxCell id="1" parent="0" />
        <mxCell id="nfuZQFnSO84eK-1PtAOt-32" value="" style="rounded=0;whiteSpace=wrap;html=1;" vertex="1" parent="1">
          <mxGeometry x="780" y="640" width="280" height="190" as="geometry" />
        </mxCell>
        <mxCell id="nfuZQFnSO84eK-1PtAOt-17" value="" style="rounded=0;whiteSpace=wrap;html=1;" vertex="1" parent="1">
          <mxGeometry x="800" y="910" width="260" height="220" as="geometry" />
        </mxCell>
        <mxCell id="nfuZQFnSO84eK-1PtAOt-20" value="" style="rounded=0;whiteSpace=wrap;html=1;" vertex="1" parent="1">
          <mxGeometry x="800" y="1890" width="260" height="170" as="geometry" />
        </mxCell>
        <mxCell id="nfuZQFnSO84eK-1PtAOt-21" value="" style="rounded=0;whiteSpace=wrap;html=1;" vertex="1" parent="1">
          <mxGeometry x="1450" y="1770" width="220" height="110" as="geometry" />
        </mxCell>
        <mxCell id="nfuZQFnSO84eK-1PtAOt-22" value="" style="rounded=0;whiteSpace=wrap;html=1;" vertex="1" parent="1">
          <mxGeometry x="1490" y="1590" width="220" height="110" as="geometry" />
        </mxCell>
        <mxCell id="nfuZQFnSO84eK-1PtAOt-35" style="edgeStyle=orthogonalEdgeStyle;rounded=0;orthogonalLoop=1;jettySize=auto;html=1;entryX=0;entryY=0.5;entryDx=0;entryDy=0;" edge="1" parent="1" source="nfuZQFnSO84eK-1PtAOt-1" target="nfuZQFnSO84eK-1PtAOt-2">
          <mxGeometry relative="1" as="geometry">
            <Array as="points">
              <mxPoint x="465" y="680" />
              <mxPoint x="465" y="705" />
            </Array>
          </mxGeometry>
        </mxCell>
        <mxCell id="nfuZQFnSO84eK-1PtAOt-41" value="Request Website files&amp;nbsp;" style="edgeLabel;html=1;align=center;verticalAlign=middle;resizable=0;points=[];" vertex="1" connectable="0" parent="nfuZQFnSO84eK-1PtAOt-35">
          <mxGeometry x="-0.4817" y="2" relative="1" as="geometry">
            <mxPoint as="offset" />
          </mxGeometry>
        </mxCell>
        <mxCell id="nfuZQFnSO84eK-1PtAOt-98" style="edgeStyle=orthogonalEdgeStyle;rounded=0;orthogonalLoop=1;jettySize=auto;html=1;entryX=0;entryY=0.5;entryDx=0;entryDy=0;" edge="1" parent="1" source="nfuZQFnSO84eK-1PtAOt-1" target="nfuZQFnSO84eK-1PtAOt-10">
          <mxGeometry relative="1" as="geometry">
            <Array as="points">
              <mxPoint x="625" y="1870" />
              <mxPoint x="625" y="1975" />
            </Array>
          </mxGeometry>
        </mxCell>
        <mxCell id="nfuZQFnSO84eK-1PtAOt-99" value="Web Socket Connection" style="edgeLabel;html=1;align=center;verticalAlign=middle;resizable=0;points=[];" vertex="1" connectable="0" parent="nfuZQFnSO84eK-1PtAOt-98">
          <mxGeometry x="-0.5171" y="2" relative="1" as="geometry">
            <mxPoint as="offset" />
          </mxGeometry>
        </mxCell>
        <mxCell id="nfuZQFnSO84eK-1PtAOt-100" style="edgeStyle=orthogonalEdgeStyle;rounded=0;orthogonalLoop=1;jettySize=auto;html=1;entryX=0;entryY=0.5;entryDx=0;entryDy=0;" edge="1" parent="1" source="nfuZQFnSO84eK-1PtAOt-1" target="nfuZQFnSO84eK-1PtAOt-69">
          <mxGeometry relative="1" as="geometry" />
        </mxCell>
        <mxCell id="nfuZQFnSO84eK-1PtAOt-101" value="Hydrate client side" style="edgeLabel;html=1;align=center;verticalAlign=middle;resizable=0;points=[];" vertex="1" connectable="0" parent="nfuZQFnSO84eK-1PtAOt-100">
          <mxGeometry x="-0.1471" y="-3" relative="1" as="geometry">
            <mxPoint x="-3" y="-15" as="offset" />
          </mxGeometry>
        </mxCell>
        <mxCell id="nfuZQFnSO84eK-1PtAOt-1" value="Clients Browser" style="whiteSpace=wrap;html=1;" vertex="1" parent="1">
          <mxGeometry x="240" y="640" width="120" height="1430" as="geometry" />
        </mxCell>
        <mxCell id="nfuZQFnSO84eK-1PtAOt-3" value="Logging System" style="whiteSpace=wrap;html=1;aspect=fixed;" vertex="1" parent="1">
          <mxGeometry x="1510" y="1602" width="80" height="80" as="geometry" />
        </mxCell>
        <mxCell id="nfuZQFnSO84eK-1PtAOt-4" value="Permissions API" style="whiteSpace=wrap;html=1;aspect=fixed;" vertex="1" parent="1">
          <mxGeometry x="1470" y="1781" width="80" height="80" as="geometry" />
        </mxCell>
        <mxCell id="nfuZQFnSO84eK-1PtAOt-37" style="edgeStyle=orthogonalEdgeStyle;rounded=0;orthogonalLoop=1;jettySize=auto;html=1;entryX=0;entryY=0.5;entryDx=0;entryDy=0;entryPerimeter=0;" edge="1" parent="1" source="nfuZQFnSO84eK-1PtAOt-6" target="nfuZQFnSO84eK-1PtAOt-9">
          <mxGeometry relative="1" as="geometry" />
        </mxCell>
        <mxCell id="nfuZQFnSO84eK-1PtAOt-43" style="edgeStyle=orthogonalEdgeStyle;rounded=0;orthogonalLoop=1;jettySize=auto;html=1;entryX=0.16;entryY=0.55;entryDx=0;entryDy=0;entryPerimeter=0;" edge="1" parent="1" source="nfuZQFnSO84eK-1PtAOt-6" target="nfuZQFnSO84eK-1PtAOt-42">
          <mxGeometry relative="1" as="geometry">
            <Array as="points">
              <mxPoint x="860" y="1084" />
            </Array>
          </mxGeometry>
        </mxCell>
        <mxCell id="nfuZQFnSO84eK-1PtAOt-6" value="Tasks &amp;amp; Timers API" style="whiteSpace=wrap;html=1;aspect=fixed;" vertex="1" parent="1">
          <mxGeometry x="820" y="921" width="80" height="80" as="geometry" />
        </mxCell>
        <mxCell id="nfuZQFnSO84eK-1PtAOt-9" value="Tasks Database" style="shape=cylinder3;whiteSpace=wrap;html=1;boundedLbl=1;backgroundOutline=1;size=15;" vertex="1" parent="1">
          <mxGeometry x="950" y="921" width="60" height="80" as="geometry" />
        </mxCell>
        <mxCell id="nfuZQFnSO84eK-1PtAOt-10" value="UserEvents API&lt;br&gt;(Web Sockets)" style="whiteSpace=wrap;html=1;aspect=fixed;" vertex="1" parent="1">
          <mxGeometry x="890" y="1935" width="80" height="80" as="geometry" />
        </mxCell>
        <mxCell id="nfuZQFnSO84eK-1PtAOt-13" value="Permissions API" style="shape=cylinder3;whiteSpace=wrap;html=1;boundedLbl=1;backgroundOutline=1;size=15;" vertex="1" parent="1">
          <mxGeometry x="1590" y="1781" width="60" height="80" as="geometry" />
        </mxCell>
        <mxCell id="nfuZQFnSO84eK-1PtAOt-14" value="Logs&lt;br&gt;Database" style="shape=cylinder3;whiteSpace=wrap;html=1;boundedLbl=1;backgroundOutline=1;size=15;" vertex="1" parent="1">
          <mxGeometry x="1630" y="1602" width="60" height="80" as="geometry" />
        </mxCell>
        <mxCell id="nfuZQFnSO84eK-1PtAOt-33" style="edgeStyle=orthogonalEdgeStyle;rounded=0;orthogonalLoop=1;jettySize=auto;html=1;entryX=0;entryY=0.5;entryDx=0;entryDy=0;entryPerimeter=0;" edge="1" parent="1" source="nfuZQFnSO84eK-1PtAOt-2" target="nfuZQFnSO84eK-1PtAOt-8">
          <mxGeometry relative="1" as="geometry" />
        </mxCell>
        <mxCell id="nfuZQFnSO84eK-1PtAOt-81" style="edgeStyle=orthogonalEdgeStyle;rounded=0;orthogonalLoop=1;jettySize=auto;html=1;entryX=-0.036;entryY=0.152;entryDx=0;entryDy=0;entryPerimeter=0;" edge="1" parent="1" source="nfuZQFnSO84eK-1PtAOt-2" target="nfuZQFnSO84eK-1PtAOt-69">
          <mxGeometry relative="1" as="geometry">
            <mxPoint x="490" y="1040" as="targetPoint" />
            <Array as="points">
              <mxPoint x="850" y="800" />
              <mxPoint x="490" y="800" />
              <mxPoint x="490" y="1042" />
            </Array>
          </mxGeometry>
        </mxCell>
        <mxCell id="nfuZQFnSO84eK-1PtAOt-82" value="Request User data server side" style="edgeLabel;html=1;align=center;verticalAlign=middle;resizable=0;points=[];" vertex="1" connectable="0" parent="nfuZQFnSO84eK-1PtAOt-81">
          <mxGeometry x="0.0797" y="-2" relative="1" as="geometry">
            <mxPoint y="1" as="offset" />
          </mxGeometry>
        </mxCell>
        <mxCell id="nfuZQFnSO84eK-1PtAOt-2" value="Nextjs server side rendered web app with Next-Auth" style="whiteSpace=wrap;html=1;aspect=fixed;" vertex="1" parent="1">
          <mxGeometry x="810" y="665" width="80" height="80" as="geometry" />
        </mxCell>
        <mxCell id="nfuZQFnSO84eK-1PtAOt-8" value="Auth Database" style="shape=cylinder3;whiteSpace=wrap;html=1;boundedLbl=1;backgroundOutline=1;size=15;" vertex="1" parent="1">
          <mxGeometry x="957" y="665" width="60" height="80" as="geometry" />
        </mxCell>
        <mxCell id="nfuZQFnSO84eK-1PtAOt-42" value="Tasks Cache" style="ellipse;shape=cloud;whiteSpace=wrap;html=1;" vertex="1" parent="1">
          <mxGeometry x="910" y="1030" width="120" height="80" as="geometry" />
        </mxCell>
        <mxCell id="nfuZQFnSO84eK-1PtAOt-87" style="edgeStyle=orthogonalEdgeStyle;rounded=0;orthogonalLoop=1;jettySize=auto;html=1;entryX=0;entryY=0.5;entryDx=0;entryDy=0;entryPerimeter=0;" edge="1" parent="1" source="nfuZQFnSO84eK-1PtAOt-27" target="nfuZQFnSO84eK-1PtAOt-86">
          <mxGeometry relative="1" as="geometry" />
        </mxCell>
        <mxCell id="nfuZQFnSO84eK-1PtAOt-27" value="JWT Manager&lt;br&gt;&lt;br&gt;Generates pub/private keys at interval, stores them in google cloud secrets&lt;br&gt;&lt;br&gt;on request will generate a JWT token for the client&lt;br&gt;&lt;br&gt;on request will supply public keys used in use&lt;br&gt;&lt;br&gt;old keys need to be cleaned up from google cloud secrets on an interval&lt;br&gt;&lt;br&gt;Keep the private keys very very private to this service" style="whiteSpace=wrap;html=1;" vertex="1" parent="1">
          <mxGeometry x="1380" y="610" width="180" height="300" as="geometry" />
        </mxCell>
        <mxCell id="nfuZQFnSO84eK-1PtAOt-51" value="" style="rounded=0;whiteSpace=wrap;html=1;" vertex="1" parent="1">
          <mxGeometry x="800" y="1148" width="260" height="220" as="geometry" />
        </mxCell>
        <mxCell id="nfuZQFnSO84eK-1PtAOt-52" style="edgeStyle=orthogonalEdgeStyle;rounded=0;orthogonalLoop=1;jettySize=auto;html=1;entryX=0;entryY=0.5;entryDx=0;entryDy=0;entryPerimeter=0;" edge="1" parent="1" source="nfuZQFnSO84eK-1PtAOt-54" target="nfuZQFnSO84eK-1PtAOt-55">
          <mxGeometry relative="1" as="geometry" />
        </mxCell>
        <mxCell id="nfuZQFnSO84eK-1PtAOt-53" style="edgeStyle=orthogonalEdgeStyle;rounded=0;orthogonalLoop=1;jettySize=auto;html=1;entryX=0.16;entryY=0.55;entryDx=0;entryDy=0;entryPerimeter=0;" edge="1" parent="1" source="nfuZQFnSO84eK-1PtAOt-54" target="nfuZQFnSO84eK-1PtAOt-56">
          <mxGeometry relative="1" as="geometry">
            <Array as="points">
              <mxPoint x="860" y="1322" />
            </Array>
          </mxGeometry>
        </mxCell>
        <mxCell id="nfuZQFnSO84eK-1PtAOt-54" value="Teams API" style="whiteSpace=wrap;html=1;aspect=fixed;" vertex="1" parent="1">
          <mxGeometry x="820" y="1159" width="80" height="80" as="geometry" />
        </mxCell>
        <mxCell id="nfuZQFnSO84eK-1PtAOt-55" value="Teams Database" style="shape=cylinder3;whiteSpace=wrap;html=1;boundedLbl=1;backgroundOutline=1;size=15;" vertex="1" parent="1">
          <mxGeometry x="950" y="1159" width="60" height="80" as="geometry" />
        </mxCell>
        <mxCell id="nfuZQFnSO84eK-1PtAOt-56" value="Teams Cache" style="ellipse;shape=cloud;whiteSpace=wrap;html=1;" vertex="1" parent="1">
          <mxGeometry x="910" y="1268" width="120" height="80" as="geometry" />
        </mxCell>
        <mxCell id="nfuZQFnSO84eK-1PtAOt-57" value="" style="rounded=0;whiteSpace=wrap;html=1;" vertex="1" parent="1">
          <mxGeometry x="800" y="1390" width="260" height="220" as="geometry" />
        </mxCell>
        <mxCell id="nfuZQFnSO84eK-1PtAOt-58" style="edgeStyle=orthogonalEdgeStyle;rounded=0;orthogonalLoop=1;jettySize=auto;html=1;entryX=0;entryY=0.5;entryDx=0;entryDy=0;entryPerimeter=0;" edge="1" parent="1" source="nfuZQFnSO84eK-1PtAOt-60" target="nfuZQFnSO84eK-1PtAOt-61">
          <mxGeometry relative="1" as="geometry" />
        </mxCell>
        <mxCell id="nfuZQFnSO84eK-1PtAOt-59" style="edgeStyle=orthogonalEdgeStyle;rounded=0;orthogonalLoop=1;jettySize=auto;html=1;entryX=0.16;entryY=0.55;entryDx=0;entryDy=0;entryPerimeter=0;" edge="1" parent="1" source="nfuZQFnSO84eK-1PtAOt-60" target="nfuZQFnSO84eK-1PtAOt-62">
          <mxGeometry relative="1" as="geometry">
            <Array as="points">
              <mxPoint x="860" y="1564" />
            </Array>
          </mxGeometry>
        </mxCell>
        <mxCell id="nfuZQFnSO84eK-1PtAOt-60" value="Organisations API" style="whiteSpace=wrap;html=1;aspect=fixed;" vertex="1" parent="1">
          <mxGeometry x="820" y="1401" width="80" height="80" as="geometry" />
        </mxCell>
        <mxCell id="nfuZQFnSO84eK-1PtAOt-61" value="Organisations&lt;br&gt;Database" style="shape=cylinder3;whiteSpace=wrap;html=1;boundedLbl=1;backgroundOutline=1;size=15;" vertex="1" parent="1">
          <mxGeometry x="950" y="1401" width="60" height="80" as="geometry" />
        </mxCell>
        <mxCell id="nfuZQFnSO84eK-1PtAOt-62" value="Organisations&lt;br&gt;Cache" style="ellipse;shape=cloud;whiteSpace=wrap;html=1;" vertex="1" parent="1">
          <mxGeometry x="910" y="1510" width="120" height="80" as="geometry" />
        </mxCell>
        <mxCell id="nfuZQFnSO84eK-1PtAOt-63" value="" style="rounded=0;whiteSpace=wrap;html=1;" vertex="1" parent="1">
          <mxGeometry x="800" y="1630" width="260" height="220" as="geometry" />
        </mxCell>
        <mxCell id="nfuZQFnSO84eK-1PtAOt-64" style="edgeStyle=orthogonalEdgeStyle;rounded=0;orthogonalLoop=1;jettySize=auto;html=1;entryX=0;entryY=0.5;entryDx=0;entryDy=0;entryPerimeter=0;" edge="1" parent="1" source="nfuZQFnSO84eK-1PtAOt-66" target="nfuZQFnSO84eK-1PtAOt-67">
          <mxGeometry relative="1" as="geometry" />
        </mxCell>
        <mxCell id="nfuZQFnSO84eK-1PtAOt-65" style="edgeStyle=orthogonalEdgeStyle;rounded=0;orthogonalLoop=1;jettySize=auto;html=1;entryX=0.16;entryY=0.55;entryDx=0;entryDy=0;entryPerimeter=0;" edge="1" parent="1" source="nfuZQFnSO84eK-1PtAOt-66" target="nfuZQFnSO84eK-1PtAOt-68">
          <mxGeometry relative="1" as="geometry">
            <Array as="points">
              <mxPoint x="860" y="1804" />
            </Array>
          </mxGeometry>
        </mxCell>
        <mxCell id="nfuZQFnSO84eK-1PtAOt-66" value="Clients &amp;amp; Projects&amp;nbsp;API" style="whiteSpace=wrap;html=1;aspect=fixed;" vertex="1" parent="1">
          <mxGeometry x="820" y="1641" width="80" height="80" as="geometry" />
        </mxCell>
        <mxCell id="nfuZQFnSO84eK-1PtAOt-67" value="Clients Database" style="shape=cylinder3;whiteSpace=wrap;html=1;boundedLbl=1;backgroundOutline=1;size=15;" vertex="1" parent="1">
          <mxGeometry x="950" y="1641" width="60" height="80" as="geometry" />
        </mxCell>
        <mxCell id="nfuZQFnSO84eK-1PtAOt-68" value="Clients Cache" style="ellipse;shape=cloud;whiteSpace=wrap;html=1;" vertex="1" parent="1">
          <mxGeometry x="910" y="1750" width="120" height="80" as="geometry" />
        </mxCell>
        <mxCell id="nfuZQFnSO84eK-1PtAOt-72" style="edgeStyle=orthogonalEdgeStyle;rounded=0;orthogonalLoop=1;jettySize=auto;html=1;entryX=0;entryY=0.5;entryDx=0;entryDy=0;" edge="1" parent="1" source="nfuZQFnSO84eK-1PtAOt-69" target="nfuZQFnSO84eK-1PtAOt-6">
          <mxGeometry relative="1" as="geometry">
            <Array as="points">
              <mxPoint x="755" y="1090" />
              <mxPoint x="755" y="961" />
            </Array>
          </mxGeometry>
        </mxCell>
        <mxCell id="nfuZQFnSO84eK-1PtAOt-76" value="Request tasks for a user" style="edgeLabel;html=1;align=center;verticalAlign=middle;resizable=0;points=[];" vertex="1" connectable="0" parent="nfuZQFnSO84eK-1PtAOt-72">
          <mxGeometry x="-0.5607" y="2" relative="1" as="geometry">
            <mxPoint as="offset" />
          </mxGeometry>
        </mxCell>
        <mxCell id="nfuZQFnSO84eK-1PtAOt-73" style="edgeStyle=orthogonalEdgeStyle;rounded=0;orthogonalLoop=1;jettySize=auto;html=1;entryX=0;entryY=0.5;entryDx=0;entryDy=0;" edge="1" parent="1" source="nfuZQFnSO84eK-1PtAOt-69" target="nfuZQFnSO84eK-1PtAOt-54">
          <mxGeometry relative="1" as="geometry">
            <Array as="points">
              <mxPoint x="755" y="1250" />
              <mxPoint x="755" y="1199" />
            </Array>
          </mxGeometry>
        </mxCell>
        <mxCell id="nfuZQFnSO84eK-1PtAOt-77" value="Request Teams of a user" style="edgeLabel;html=1;align=center;verticalAlign=middle;resizable=0;points=[];" vertex="1" connectable="0" parent="nfuZQFnSO84eK-1PtAOt-73">
          <mxGeometry x="-0.4094" y="-3" relative="1" as="geometry">
            <mxPoint x="8" as="offset" />
          </mxGeometry>
        </mxCell>
        <mxCell id="nfuZQFnSO84eK-1PtAOt-74" style="edgeStyle=orthogonalEdgeStyle;rounded=0;orthogonalLoop=1;jettySize=auto;html=1;entryX=0;entryY=0.5;entryDx=0;entryDy=0;" edge="1" parent="1" source="nfuZQFnSO84eK-1PtAOt-69" target="nfuZQFnSO84eK-1PtAOt-60">
          <mxGeometry relative="1" as="geometry">
            <Array as="points">
              <mxPoint x="755" y="1390" />
              <mxPoint x="755" y="1441" />
            </Array>
          </mxGeometry>
        </mxCell>
        <mxCell id="nfuZQFnSO84eK-1PtAOt-78" value="Request the users organisations" style="edgeLabel;html=1;align=center;verticalAlign=middle;resizable=0;points=[];" vertex="1" connectable="0" parent="nfuZQFnSO84eK-1PtAOt-74">
          <mxGeometry x="-0.3317" y="1" relative="1" as="geometry">
            <mxPoint x="19" y="-9" as="offset" />
          </mxGeometry>
        </mxCell>
        <mxCell id="nfuZQFnSO84eK-1PtAOt-75" style="edgeStyle=orthogonalEdgeStyle;rounded=0;orthogonalLoop=1;jettySize=auto;html=1;entryX=0;entryY=0.5;entryDx=0;entryDy=0;" edge="1" parent="1" source="nfuZQFnSO84eK-1PtAOt-69" target="nfuZQFnSO84eK-1PtAOt-66">
          <mxGeometry relative="1" as="geometry">
            <Array as="points">
              <mxPoint x="755" y="1610" />
              <mxPoint x="755" y="1681" />
            </Array>
          </mxGeometry>
        </mxCell>
        <mxCell id="nfuZQFnSO84eK-1PtAOt-79" value="Request the clients for a user" style="edgeLabel;html=1;align=center;verticalAlign=middle;resizable=0;points=[];" vertex="1" connectable="0" parent="nfuZQFnSO84eK-1PtAOt-75">
          <mxGeometry x="-0.4506" y="3" relative="1" as="geometry">
            <mxPoint x="23" y="13" as="offset" />
          </mxGeometry>
        </mxCell>
        <mxCell id="nfuZQFnSO84eK-1PtAOt-69" value="API Gateway" style="rounded=0;whiteSpace=wrap;html=1;" vertex="1" parent="1">
          <mxGeometry x="560" y="921" width="100" height="799" as="geometry" />
        </mxCell>
        <mxCell id="nfuZQFnSO84eK-1PtAOt-86" value="Google Secrets" style="shape=cylinder3;whiteSpace=wrap;html=1;boundedLbl=1;backgroundOutline=1;size=15;" vertex="1" parent="1">
          <mxGeometry x="1740" y="730" width="60" height="80" as="geometry" />
        </mxCell>
      </root>
    </mxGraphModel>
  </diagram>
</mxfile>
